# xmcd CD database file
#
# Track frame offsets:
#	150
#	12995
#	27810
#	43570
#	63337
#	77875
#	99437
#	110295
#	133015
#	143240
#	157885
#	169687
#	205130
#
# Disc length: 3096 seconds
#
# Revision: 0
# Processed by: cddbd v1.5.1PL0 Copyright (c) Steve Scherf et al.
# Submitted via: CDex 1.51
#
DISCID=a10c160d
DTITLE=Slim Chance and The Convicts - Twang Peaks
DYEAR=1995
DGENRE=Country
TTITLE0=Please Don't Ask
TTITLE1=It Won't Be The First Time
TTITLE2=I'll Believe It When I Want To
TTITLE3=Just Dropped In
TTITLE4=Perfect Stranger
TTITLE5=Now That His Love Is Gone
TTITLE6=Pop A Top
TTITLE7=Crying Over You
TTITLE8=My Baby Drives A Shopping Cart
TTITLE9=King Of Loserville
TTITLE10=Acting Like Me Again
TTITLE11=The Hardest Part
TTITLE12=Unlisted Track
EXTD=YEAR: 1995
EXTT0=
EXTT1=
EXTT2=
EXTT3=
EXTT4=
EXTT5=
EXTT6=
EXTT7=
EXTT8=
EXTT9=
EXTT10=
EXTT11=
EXTT12=
PLAYORDER=
